<?xml version="1.0" encoding="UTF-8"?>
<svg id="Layer_2" data-name="Layer 2" xmlns="http://www.w3.org/2000/svg" viewBox="0 0 682 695.03">
  <g id="Layer_1-2" data-name="Layer 1">
    <g>
      <g>
        <g>
          <g>
            <path d="M83.63,272.7l-1.97-.71,2.19-6.08-41.64-14.97-2.19,6.08-1.98-.71,6.83-18.99,1.98.71-2.3,6.38,41.64,14.97,3.74-10.41c.2-.56.36-1.16.48-1.8.36-3.07-1.57-6.06-5.79-8.95l-4.63-3.12.55-1.52,15.06,5.84-11.97,33.28Z"/>
            <path d="M103.36,224.34l-1.83-1.04,3.19-5.62-38.48-21.84-3.19,5.62-1.82-1.04,9.76-17.2,1.82,1.04-3.15,5.55,38.48,21.84,2.11-3.72c.13-.23.29-.45.47-.66.57-.67,1.36-.71,2.39-.13l-9.76,17.2Z"/>
            <path d="M115.42,131.81c7.45-1.51,14.42.55,20.93,6.2,2.48,2.15,4.48,4.53,6,7.13,3.43,5.83,4.22,11.93,2.38,18.32,1.42.09,2.43.15,3.05.19,4.36.15,7.26-.61,8.71-2.27,1.58-1.91,2.05-5.03,1.4-9.37l1.84-.65c2.83,6.1,2.86,10.83.08,14.19-1.59,1.75-3.89,2.72-6.89,2.89-1.64.08-4.85-.32-9.64-1.21-1.04,2.1-2.24,3.93-3.62,5.52-3.74,4.31-8.4,6.96-13.98,7.97-7.46,1.29-14.37-.82-20.71-6.33-5.77-5.01-8.78-10.94-9.04-17.79-.21-6.32,1.81-11.94,6.08-16.86,3.64-4.19,8.1-6.83,13.41-7.93ZM141.62,163.33c.64-6.07-2.92-12.52-10.69-19.34-1.91-1.66-3.8-3.09-5.68-4.29-8.7-5.49-15.9-4.97-21.58,1.58-.88,1.02-1.65,2.1-2.29,3.25-3.87,7.33-.91,15.25,8.88,23.76,7.23,6.28,13.71,8.92,19.44,7.9-1.01-4.01-.52-7.19,1.45-9.55,2.05-2.28,5.54-3.38,10.47-3.31ZM140.67,166.89c-3.58-.4-6.09.2-7.54,1.79-1.27,1.54-1.68,3.86-1.23,6.95,2.23-.84,4.25-2.3,6.04-4.37,1.24-1.42,2.15-2.88,2.73-4.37Z"/>
            <path d="M138.77,103.6l16.16-11.41,1.21,1.72-5.21,3.68,15.98,22.62c2.02,2.86,4.04,5.06,6.05,6.6,4.61,3.53,9.59,3.41,14.96-.38.53-.37,1.04-.77,1.54-1.18,5.86-5.13,5.79-11.96-.24-20.49l-16.12-22.82-5.27,3.73-1.21-1.71,12.86-9.09,1.21,1.72-5.28,3.73,15.84,22.42c1.74,2.46,3.05,4.83,3.93,7.11,2.84,7.48.4,13.95-7.34,19.42-10.19,7.13-18.96,5.58-26.31-4.64l-16.26-23.02-5.28,3.73-1.21-1.72Z"/>
            <path d="M221.71,107.89l-.87-1.91,5.88-2.67-18.27-40.3-5.88,2.67-.87-1.91,18.02-8.17.87,1.91-5.81,2.63,18.27,40.3,3.9-1.77c.24-.11.5-.2.77-.26.85-.21,1.52.23,2.01,1.31l-18.02,8.17Z"/>
            <path d="M267.6,40.22c5.35-1.24,10.33-1.08,14.95.5,7.58,2.66,12.42,8.5,14.52,17.51,1.62,6.97.68,13.16-2.81,18.56-3.54,5.46-8.85,9.02-15.92,10.67l-21.71,5.05-.47-2.04,6.29-1.46-10.02-43.1-6.29,1.46-.47-2.04,21.94-5.1ZM259.19,44.33l10.02,43.1,8.89-2.07c1.05-.24,2.05-.56,3.01-.95,8.6-3.43,11.38-11.68,8.34-24.74-.89-3.83-2.05-7.04-3.48-9.63-3.8-7.08-9.84-9.65-18.13-7.72l-8.65,2.01Z"/>
            <path d="M351.2,79.76l.21-2.09,6.43.64,4.38-44.03-6.43-.64.21-2.09,20.09,2-.21,2.09-6.75-.67-4.38,44.03,11.01,1.09c.59.06,1.21.07,1.86.02,3.07-.4,5.49-3,7.27-7.8l1.9-5.25,1.61.16-2,16.03-35.19-3.5Z"/>
            <path d="M446.75,64.76l.05-3.96c.01-.22.01-.5,0-.84-.04-5.48-1.91-8.8-5.61-9.95l-12.33-3.84-6,19.27,15.88,4.95-.7,2.24-15.88-4.95-6.46,20.74,12.34,3.84c.87.27,1.74.4,2.59.38,2.79-.09,5.51-2.12,8.15-6.09l2.21-3.29,1.54.48-4.71,13.75-35.54-11.07.62-2,6.17,1.92,13.16-42.25-6.17-1.92.63-2,35.54,11.07-3.94,14-1.54-.48Z"/>
            <path d="M509.75,111.2l-1.07,1.81-5.22-3.08-10.01,16.97-4.64-5.64c-.34.05-.75.06-1.23.02-3.73-.14-7.34-1.23-10.81-3.28-4.78-2.82-8.22-6.84-10.31-12.08-2.82-7.29-2.05-14.64,2.33-22.06,3.83-6.49,9.11-10.47,15.85-11.93,6.15-1.31,12-.33,17.57,2.95,3.29,1.94,5.97,4.49,8.05,7.65l6.79,2.32-7.61,13.7-1.81-1.07c1.16-4.51,1.57-8.07,1.25-10.7-.58-3.9-3.25-7.26-8.03-10.07-1.3-.77-2.61-1.35-3.93-1.76-7.72-2.18-14.83,2.25-21.33,13.29-7.56,12.92-6.75,22.14,2.43,27.68.37.22.75.41,1.15.59,4.09,1.97,8.11,2.25,12.07.84l6.4-10.85-6.26-3.69,1.07-1.81,17.32,10.21Z"/>
            <path d="M532.31,160.51l1.46-1.51,3.77,3.65,6.55-15.46-12.12-11.74-15.25,7.04,2.84,2.75c.19.19.37.39.52.62.5.71.35,1.5-.48,2.35l-10.32-10,1.46-1.51,3.65,3.54,45.24-20.7,2.15,2.08-18.97,46.15,1.97,1.91c.19.19.37.39.52.62.5.71.35,1.5-.48,2.35l-12.53-12.14ZM553.22,125.57l-18.99,8.81,10.84,10.51,8.15-19.32Z"/>
            <path d="M566.89,205.77c-4.04-6.24-5.23-12.64-3.59-19.22,1.65-6.26,5.44-11.31,11.36-15.14,4.88-3.16,10.04-4.64,15.49-4.45,7.75.37,13.93,4.13,18.55,11.27,1.4,2.17,2.53,4.46,3.38,6.86,1.24,3.69,1.62,6.61,1.16,8.77,1.22-.79,2.15-1.29,2.78-1.51.78-.18,1.49.22,2.13,1.22l-12.34,8.28-1.05-1.63c.79-.96,1.51-1.97,2.17-3.04,3.69-5.98,3.71-11.8.06-17.45-1.61-2.48-3.71-4.33-6.29-5.55-6.04-2.69-13.29-1.31-21.74,4.16-3.93,2.55-7.01,5.27-9.23,8.19-4.55,5.95-4.92,11.87-1.11,17.74,4.52,6.89,11.25,9.07,20.2,6.55l1.05,1.63-12.81,8.29c-.35-.54-.56-1.02-.63-1.42-.08-.72.83-1.69,2.73-2.92-5.18-2.55-9.26-6.09-12.26-10.63Z"/>
            <path d="M588.61,245.83l1.97-.73,2.24,6.06,16.13-5.96,20.11-23.61-1.54-4.16,1.97-.73,6.32,17.12-1.97.73-2.13-5.76-17.59,20.19,26.29,3.37-2.24-6.06,1.97-.73,4.98,13.48c-.25.09-.51.16-.79.2-.86.15-1.5-.34-1.91-1.45-.63-1.55-1.84-2.65-3.63-3.31l-26.72-3.13-16.89,6.24,1.51,4.09c.09.25.16.51.21.79.15.86-.34,1.5-1.45,1.91l-6.86-18.56Z"/>
          </g>
          <g>
            <path d="M52.68,450.6l27.18-9.93,1.42,3.88-27.18,9.93-1.42-3.88Z"/>
            <path d="M61.75,473.7l25.86-13,1.52,3.03-12.64,27.78-.8-1.59,21.24-10.67,1.86,3.69-25.86,13-1.52-3.03,12.64-27.78.8,1.59-21.24,10.67-1.86-3.69Z"/>
            <path d="M87.12,518.61l20.91-14.32-5.61-8.19,2.97-2.03,13.53,19.75-2.97,2.03-5.61-8.19-20.91,14.32-2.31-3.38Z"/>
            <path d="M110.83,543.9l11.18,12.63-2.69,2.38-13.92-15.73,21.67-19.18,13.53,15.29-2.69,2.38-10.79-12.2-16.28,14.41ZM120.21,535.1l9.86,11.14-2.63,2.33-9.86-11.14,2.63-2.33Z"/>
            <path d="M142.42,580.92c-1.69-1.46-3.01-3.07-3.96-4.85-.94-1.77-1.5-3.62-1.68-5.53-.17-1.91.03-3.8.61-5.66.58-1.86,1.57-3.61,2.98-5.24,1.4-1.63,2.98-2.87,4.73-3.73,1.75-.86,3.59-1.34,5.52-1.44,1.93-.11,3.84.17,5.74.84,1.9.67,3.7,1.74,5.42,3.21,1.73,1.49,3.08,3.14,4.04,4.94.96,1.8,1.45,3.7,1.48,5.69l-3.61.27c-.15-1.65-.57-3.13-1.27-4.45-.71-1.32-1.68-2.5-2.91-3.56-1.26-1.08-2.6-1.87-4.04-2.38s-2.87-.72-4.3-.64c-1.43.08-2.8.45-4.12,1.12s-2.5,1.6-3.54,2.82c-1.02,1.19-1.77,2.49-2.23,3.89-.46,1.4-.63,2.82-.5,4.26.13,1.44.55,2.82,1.25,4.16.71,1.33,1.69,2.54,2.94,3.62,1.17,1.01,2.45,1.79,3.84,2.35,1.39.56,2.91.81,4.57.74l-.26,3.92c-1.88-.01-3.74-.41-5.6-1.19-1.86-.78-3.56-1.83-5.11-3.16ZM150.47,582.28l7.01-8.15,3.01,2.59-7.36,8.56-2.66-2.99Z"/>
            <path d="M167.29,599.82l15.59-24.38,9.51,6.08c2.14,1.37,3.74,2.87,4.82,4.51,1.08,1.64,1.62,3.36,1.61,5.15,0,1.8-.57,3.58-1.7,5.34-1.13,1.76-2.5,3.02-4.12,3.77-1.62.74-3.4.97-5.34.68-1.94-.29-3.98-1.12-6.11-2.49l-7.59-4.86,2.59-.6-5.77,9.02-3.48-2.23ZM176.32,593.38l-.47-2.71,7.49,4.79c2.23,1.43,4.23,2.02,5.99,1.8,1.77-.23,3.21-1.22,4.32-2.96,1.11-1.74,1.4-3.46.86-5.14-.54-1.69-1.93-3.24-4.15-4.67l-7.49-4.79,2.68-.74-9.22,14.42ZM183.59,610.25l-.54-12.81,3.73,2.38.61,12.85-3.8-2.43Z"/>
            <path d="M199.75,619.58l23.97-20.84,3.72,1.71-.11,31.78-3.94-1.81.46-29.08,1.5.69-21.73,19.32-3.87-1.78ZM207.84,615.33l2.39-2.54,14.81,6.79-.29,3.51-16.91-7.76Z"/>
            <path d="M247.02,638.94l7.61-24.17-9.47-2.98,1.08-3.43,22.83,7.19-1.08,3.43-9.46-2.98-7.61,24.17-3.9-1.23Z"/>
            <path d="M276.25,646.77l5.9-28.33,4.05.84-5.9,28.33-4.05-.84Z"/>
            <path d="M308.49,651.93l-9.82-30.05,4.44.44,9.01,27.73-2.55-.25,14.35-25.42,4.11.41-15.48,27.55-4.07-.4Z"/>
            <path d="M345.08,650.05l16.86-.52.11,3.6-20.99.64-.89-28.92,20.41-.63.11,3.59-16.28.5.67,21.73ZM344.31,637.22l14.88-.46.11,3.51-14.88.46-.11-3.51Z"/>
            <path d="M410.12,646.05l-16.97-25.36,4.11-1.12,15.62,23.42-2.07.57,1.85-28.19,3.67-1,15.74,23.38-1.99.55,1.65-28.14,3.79-1.04-1.7,30.46-4.19,1.15-14.67-21.66,1.08-.29-1.64,26.12-4.27,1.17Z"/>
            <path d="M461.77,625.02l15.34-7.01,1.5,3.27-19.1,8.73-12.03-26.32,18.57-8.49,1.5,3.27-14.81,6.77,9.04,19.78ZM456.09,613.48l13.54-6.19,1.46,3.2-13.54,6.19-1.46-3.2Z"/>
            <path d="M495.12,612.18l-15.23-24.61,3.52-2.18,13.33,21.55,13.32-8.24,1.89,3.06-16.84,10.42Z"/>
            <path d="M525.56,591.89l-18.05-22.62,3.23-2.58,15.8,19.81,12.25-9.77,2.24,2.81-15.48,12.35Z"/>
            <path d="M553.68,568.04l-20.91-20,2.34-2.45,30.41,2.6-1.23,1.28-17.18-16.43,2.86-2.99,20.91,20-2.34,2.45-30.41-2.6,1.23-1.28,17.18,16.43-2.86,2.99Z"/>
            <path d="M583.64,528.3l9.85-13.69,2.92,2.1-12.26,17.05-23.49-16.89,11.92-16.58,2.92,2.1-9.51,13.22,17.65,12.69ZM572.99,521.1l8.69-12.08,2.85,2.05-8.69,12.08-2.85-2.05Z"/>
            <path d="M610.6,493.34c-1.05,1.94-2.35,3.63-3.9,5.08-1.55,1.45-3.08,2.42-4.57,2.93l-2.11-2.88c1.37-.51,2.75-1.36,4.12-2.57,1.37-1.2,2.5-2.61,3.38-4.24.8-1.48,1.28-2.77,1.44-3.88.16-1.1.06-2.03-.3-2.79-.36-.76-.91-1.34-1.66-1.75-.87-.47-1.73-.57-2.57-.29s-1.67.79-2.49,1.52c-.82.73-1.65,1.58-2.48,2.54-.83.96-1.71,1.9-2.64,2.83-.92.93-1.89,1.7-2.89,2.34s-2.08,1-3.25,1.09c-1.16.09-2.42-.23-3.78-.96-1.31-.71-2.33-1.71-3.06-3-.73-1.29-1.03-2.83-.92-4.64.12-1.8.78-3.82,1.98-6.05.8-1.48,1.79-2.84,2.97-4.08,1.17-1.24,2.41-2.2,3.72-2.87l2.26,2.78c-1.32.7-2.47,1.56-3.45,2.6-.98,1.04-1.78,2.12-2.4,3.26-.78,1.43-1.23,2.7-1.36,3.82-.14,1.12-.02,2.05.36,2.81.38.75.94,1.33,1.69,1.74.9.49,1.77.59,2.61.31.84-.28,1.67-.79,2.47-1.53.81-.74,1.63-1.58,2.48-2.54.85-.95,1.72-1.89,2.64-2.83s1.87-1.72,2.87-2.35c1-.63,2.08-1,3.23-1.1,1.15-.1,2.39.21,3.72.93,1.28.7,2.29,1.7,3.01,3,.72,1.3,1.02,2.86.89,4.69-.13,1.83-.8,3.86-2,6.09Z"/>
            <path d="M626.53,459.01c-.8,2.05-1.88,3.9-3.24,5.52-1.36,1.63-2.75,2.79-4.18,3.47l-2.45-2.6c1.3-.68,2.56-1.69,3.77-3.06,1.21-1.36,2.15-2.9,2.83-4.62.61-1.57.93-2.91.95-4.02.02-1.12-.19-2.03-.64-2.74-.45-.71-1.07-1.22-1.87-1.53-.92-.36-1.79-.35-2.59.03-.8.38-1.56.99-2.28,1.81-.72.83-1.44,1.77-2.15,2.82-.71,1.06-1.46,2.1-2.27,3.13-.8,1.03-1.66,1.93-2.58,2.68-.92.75-1.94,1.25-3.09,1.48s-2.43.07-3.87-.49c-1.39-.54-2.52-1.41-3.4-2.59-.88-1.19-1.38-2.68-1.49-4.49-.11-1.8.3-3.89,1.22-6.25.61-1.57,1.42-3.04,2.43-4.42,1.01-1.38,2.12-2.48,3.34-3.31l2.58,2.47c-1.22.86-2.26,1.86-3.1,3.01-.85,1.15-1.51,2.33-1.98,3.53-.59,1.52-.89,2.84-.88,3.96s.24,2.04.71,2.74c.47.7,1.1,1.21,1.89,1.52.95.37,1.82.37,2.63-.02.8-.38,1.55-.99,2.26-1.82.71-.83,1.43-1.77,2.15-2.82.72-1.05,1.48-2.09,2.26-3.13.79-1.04,1.64-1.93,2.56-2.68.92-.75,1.94-1.25,3.07-1.49,1.13-.24,2.4-.08,3.81.47,1.36.53,2.48,1.4,3.36,2.6.88,1.2,1.36,2.72,1.46,4.54.1,1.83-.31,3.92-1.23,6.29Z"/>
          </g>
        </g>
        <path d="M341,695.03C152.97,695.03,0,539.14,0,347.52S152.97,0,341,0s341,155.9,341,347.52-152.97,347.52-341,347.52ZM341,3.1C154.68,3.1,3.1,157.61,3.1,347.52s151.58,344.42,337.9,344.42,337.9-154.51,337.9-344.42S527.32,3.1,341,3.1Z"/>
        <path d="M624.77,273.67l-3.31-.39c6.28,23.71,9.63,48.6,9.63,74.25s-3.6,52.36-10.34,76.83c1.05,0,2.11.1,3.16.25,6.7-24.58,10.27-50.42,10.27-77.08s-3.27-50.25-9.43-73.86ZM59.08,278.96l-2.94-1.03c-5.46,22.32-8.35,45.62-8.35,69.6,0,27.33,3.76,53.8,10.79,78.92l2.91-1.07c-6.9-24.78-10.6-50.89-10.6-77.84,0-23.61,2.83-46.57,8.19-68.56Z"/>
      </g>
      <g>
        <path d="M357.65,395.03l-.02-.03s-.01.02-.02.04c.03,0,.04.02.07.02,0,0-.01-.02-.03-.03Z"/>
        <path d="M466.53,561.13c-.91.51-1.8.99-2.89,1.08-14.74,1.26-29.42-.39-44.48-.66.7-1.3,1.71-1.63,2.54-2.14,6.86-4.21,14.09-7.73,21.27-11.36,4.95-2.5,9.47-5.61,13.14-9.78,5.52-6.27,11.79-11.75,17.82-17.49,11.23-10.7,24.73-17.65,38.95-23.37,4.65-1.87,9.33-3.68,14.1-5.22,9.35-3.03,17.68-7.87,25.66-13.36.34-.54.68-1.08,1.01-1.62-11.15,7.79-23.51,12.92-36.31,17.38-18.32,6.38-35.22,15.47-48.68,29.82-4.88,5.2-11.04,5.23-17.21,5.79-3.96.35-7.94.44-11.91.65-2.61.14-5.17.74-7.15,2.43-8.28,7.08-16.95,13.49-27.33,17.28,2.09.11,3.9-.72,5.67-1.52,6.5-2.94,12.71-6.46,17.85-11.43,4.29-4.15,9.13-6.11,15.06-6.02,6.15.09,12.27-.61,18.91-1.78-6.04,6.9-11.92,13.18-19.83,17.15-7.53,3.78-15.19,7.39-22.1,12.17-3.03,2.09-5.85,2.26-9.1,2.14-5.11-.19-10.22-.23-15.33-.37-.88-.02-1.89.23-2.25-1.12-1.53-5.92-6.44-9.15-10.53-13.02-1.72-1.62-3.5-3.19-5.35-4.66-1.49-1.18-1.19-1.97.12-3.07,4.03-3.38,8.71-5.37,13.8-6.29,11.49-2.08,21.07-7.68,29.42-15.59,5.84-5.53,11.69-11.07,17.32-16.81,4.44-4.53,9.45-8.16,15.18-10.79,7.71-3.54,14.69-8.2,21.37-13.38,2.39-1.86,4.9-3.57,7.31-5.39,10.11-7.63,21.33-11.53,34.12-12.34,16.36-1.05,30.02-9.22,42.61-19.13,5.37-4.23,10.68-8.43,17.19-10.59.37-1.08.74-2.17,1.1-3.27-6.31,1.71-11.94,4.85-17.06,9.12-10.26,8.58-21.5,15.47-34.43,19.28-4.65,1.37-9.45,2.14-14.27,2.29-11.6.37-21.34,5.35-30.5,11.84-3.94,2.79-7.8,5.69-11.63,8.64-5.66,4.36-11.89,7.74-18.26,10.88-5.75,2.84-10.75,6.63-15.23,11.24-4.95,5.09-10.15,9.94-15.23,14.9-.7.68-1.34,1.24-2.45,1.13-8.54-.84-17.02.25-25.51.94-4.62.38-9.26.58-13.89.83-.54.03-1.41.02-1.58-.29-2.12-3.71-5.72-3.58-9.23-3.65-1.5-.03-1.92-.45-1.53-2.05,1.14-4.66-.83-7.71-5.46-8.85-2.04-.5-4.07-.45-6.2.19.11-1.93.24-3.61.28-5.28.03-1.46-.23-3.03-1.38-3.9-2.39-1.81-.85-2.38.66-3.46,8.68-6.19,16.35-13.5,23.1-21.74,10.85-13.26,24.94-21.61,40.95-26.86,12.53-4.11,24.79-8.77,36.47-14.91,1.17-.62,2.45-1.14,3.43-1.99,12.11-10.52,25.74-19.45,34.95-33.02,3.03-4.47,6.1-8.91,8.96-13.48,8.58-13.7,20.3-22.98,36.3-26.62,7.81-1.78,14.47-5.93,19.31-12.28,8.54-11.21,19.14-20.47,28.65-30.76-.19-1.2-.38-2.4-.6-3.6-4.45,4.64-8.82,9.36-13.59,13.69-5.34,4.85-9.91,10.44-14.33,16.12-5.97,7.67-13.49,12.63-23.08,14.96-12.67,3.08-22.94,10.15-30.51,20.86-5.03,7.11-9.86,14.35-14.85,21.5-2.77,3.98-5.96,7.62-9.66,10.75-6.51,5.5-12.9,11.13-19.35,16.7-6.51,5.62-14.7,8.49-22.49,11.91-8.24,3.62-17.03,5.76-25.37,9.07-14.5,5.75-27.56,13.74-37.49,26.18-5.57,6.97-12.03,13.11-18.74,18.98-.57.5-1.26.9-1.71,1.49-2.61,3.42-6.32,4.63-10.69,5.28.18-3.81.35-7.65.53-11.49.1-2.18.17-4.35.31-6.53.11-1.6-.54-3.82,2.68-2.47,1.59.67,2.75-.9,3.34-2.4.71-1.79.66-3.66-.73-5.05-1.28-1.29-2.76-.75-4.39.91.52-7.33.88-14.01,1.48-20.67.93-10.28,2.78-20.43,4.69-30.58.34-1.79,1.08-2.88,2.71-3.91,6.79-4.31,13.7-8.47,19.99-13.5,6.06-4.84,12.59-8.75,19.87-11.35,6.01-2.15,11.55-5.15,16.89-8.62,6.11-3.97,12.35-7.75,18.54-11.59,4.38-2.72,8.33-5.92,11.38-10.14,4.96-6.87,11.72-10.83,19.98-12.42,9.55-1.84,17.87-5.89,24.51-13.26,4.59-5.1,10.67-8.12,16.97-10.58,11.77-4.6,22.99-10.19,33.35-17.5,6.36-4.48,11.82-9.72,15.69-16.54,3.82-6.72,8.5-12.73,14.56-17.64,2.6-2.11,4.91-4.54,7.11-7.05-.11-.28-.22-.57-.32-.85-8.58,8.4-17.85,16.14-23.58,27.13-3.02,5.8-8.19,9.85-13.46,13.65-10.68,7.68-22.37,13.42-34.59,18.15-6.88,2.67-13.06,6.38-18.11,11.89-5.29,5.78-11.99,9.1-19.56,10.85-3.04.7-6.06,1.51-9.02,2.49-5.15,1.72-9.51,4.7-12.76,9.09-4.13,5.59-9.39,9.8-15.28,13.37-6.8,4.12-13.52,8.37-20.22,12.64-4.1,2.61-8.52,4.51-13.07,6.15-5.38,1.94-10.52,4.44-14.98,7.97-7.21,5.72-15.27,10.2-22.49,15.88-.87.68-1.83,1.24-3.23,2.19,1.28-5.37,1.46-10.4,4.41-14.63-1.93-.47-.43-1.69-.29-2.34,2.59-12.35,9.93-21.44,19.9-28.71,9.04-6.59,18.88-11.93,28.37-17.82,9.89-6.15,18.73-13.51,26.57-22.08,6.01-6.57,13.12-11.5,20.82-15.99,25.31-14.75,48.95-31.67,67.68-54.67,7.3-8.96,12.47-19.19,18.11-29.14,2.89-5.09,6.19-9.86,9.8-14.42-.59-.88-1.17-1.76-1.77-2.63-4.6,5.34-8.48,11.22-11.62,17.55-13.83,27.89-35.15,48.78-60.54,66.02-9.71,6.59-19.38,13.21-29.78,18.73-6.69,3.56-11.74,9.25-16.83,14.72-9.07,9.75-19.71,17.38-31.23,23.9-.82.46-1.65.81-2.63.94-20.72,2.59-41.48,3.54-62.35,2.28-10.69-.64-21.4.06-32.09.48-13.67.54-27.26-.12-40.81-1.9-1.68-.22-3.44-.47-5.09-.22-2.5.37-3.33-1.22-4.22-2.91-.94-1.79.92-2.19,1.63-3.12,8.74-11.46,20.56-19.46,31.73-28.2,4.03-3.15,7.77-6.67,11.27-10.4,6.92-7.38,15.13-12.83,24.35-16.86,13.43-5.88,26.82-11.87,40.33-17.58,10.06-4.26,18.27-10.55,24.19-19.83,3.15-4.95,6.62-9.7,9.98-14.51,4.38-6.27,9.71-11.65,15.82-16.2,6.74-5.03,11.99-11.3,15.87-18.68,2.68-5.1,7.17-7.13,12.39-7.85,3.55-.49,6.4,1.33,8.63,4.03,2.63,3.18,4.18,6.95,5.74,10.71,1.38,3.32,2.56,6.73,4.48,9.8,3.59,5.76,8.91,8.04,15.54,6.68,7.15-1.46,12.95-5.22,17.66-10.67,5.01-5.8,9.57-11.98,15.44-17.03,7.02-6.04,14.69-10.89,23.28-14.15-.2-.23-.41-.46-.61-.69-4.78,1.66-9.24,3.98-13.52,6.73-9.21,5.91-16.68,13.62-23.39,22.18-4.73,6.03-10.49,10.63-18.14,12.45-7.03,1.68-12.34-.51-15.75-6.84-1.7-3.15-3.01-6.53-4.41-9.83-1.15-2.71-2.37-5.37-3.95-7.85-4.1-6.39-9.37-8.02-16.36-5.07-1.04.44-2.05.95-3.67,1.71,1.82-3.53,3.39-6.56,4.95-9.59,4.95-9.6,9.93-19.14,17.41-27.16,8.02-8.59,17.32-15.03,28.2-19.03-.93-.62-1.87-1.24-2.81-1.85-13.04,5.2-24.69,12.71-36.07,20.73-10.44,7.36-22.18,11.96-34.61,14.45-15.38,3.08-29.02,9.48-41.23,19.27-8.73,7-18.25,12.84-28.16,18.07-10.28,5.42-19.07,12.99-28.13,20.14-1.53,1.21-2.6,1.29-4.25.46-7.37-3.72-14.34-8.09-21.2-12.67-3.08-2.06-6.36-3.75-9.71-5.3-6.52-3.03-12.84-2.77-18.93,1.14-4.94,3.17-9.84,6.4-14.77,9.58-11.91,7.68-25.09,12.81-37.92,18.63-12.33,5.59-24.59,11.31-35.87,18.88-2.12,1.42-3.88,1.58-6.19.41-5.69-2.86-11.83-4.56-17.95-6.2-9.6-2.58-17.21-8.56-24.98-14.3-.07-.05-.11-.1-.17-.15-.41.87-.82,1.75-1.23,2.63.33.14.69.37,1.13.71,3.44,2.66,6.81,5.42,10.51,7.75,6.26,3.93,13.17,6.18,20.22,8.06,14.1,3.76,25.67,10.96,34.39,23.01,10.85,15,23.95,27.74,39.86,37.54,11.36,6.99,20.78,16.01,27.13,28.03,3.73,7.06,8.62,13.42,14.55,18.79,6.2,5.61,8.37,12.64,8.33,20.62-.06,9.96-1.64,19.8-2.3,29.72-.46,6.88-1.03,13.76-1.54,20.64-.12,1.59-.21,3.18-.35,5.24-9.1-8.57-16.95-17.5-23.83-27.27-4.97-7.06-11.24-12.78-18.31-17.65-9.44-6.51-18.57-13.42-27.21-20.96-6.43-5.61-13.6-9.81-21.74-12.5-8.17-2.69-15.73-6.99-23.98-9.53-4.61-1.42-9.25-2.73-13.84-4.22-6.79-2.2-12.73-5.81-17.5-11.18-8.13-9.14-15.95-18.59-25.88-25.91-.15,1.11-.28,2.22-.41,3.34,4.41,3.7,8.75,6.93,12.33,11.04,3.3,3.79,6.54,7.61,9.87,11.38,6.21,7.04,13.56,12.3,22.78,14.75,10.45,2.78,20.56,6.5,30.34,11.13,1.71.81,3.48,1.53,5.29,2.04,7.8,2.21,14.59,6.18,20.62,11.56,9.84,8.78,20.52,16.47,31.28,24.07,5.38,3.8,10.13,8.34,13.88,13.73,6.8,9.77,14.53,18.68,23.5,26.5,2.15,1.88,2.71,3.86,2.38,6.69-1.39,11.94-2.55,23.91-3.74,35.87-.14,1.38-.02,2.78-.02,4.35.76-.49,1.42-1.87,1.92-.09.44,1.58,2.45,3.77,1.18,4.52-1.58.93-2.32-1.72-3.24-3.01-2.37-3.34-7.07-5.15-11.07-3.91-2,.62-3.08.05-4.62-1.24-6.82-5.72-13.24-11.83-21.76-15.48-8.12-3.48-15.59-8.53-23.26-13.02-3.95-2.31-7.23-5.49-10.19-8.98-13.01-15.31-27.71-28.73-44.3-40.11-8.92-6.12-16.68-13.7-24.4-21.25-3.91-3.83-6.72-8.54-7.92-13.91-1.6-7.17-5.3-12.81-10.9-17.46-3.79-3.15-7.48-6.41-11.45-9.33-.08-.06-.16-.11-.24-.17,0,.49.02.98.02,1.47,5.8,4.13,11.27,8.65,16.1,13.91,2.79,3.03,4.1,6.79,5.08,10.65,1.82,7.2,5.57,13.17,11.03,18.17,8.8,8.06,17.7,15.94,27.54,22.78,14.06,9.76,26.41,21.51,37.42,34.62,4.82,5.74,10.51,10.32,17.11,13.83,8.26,4.4,16.18,9.43,25.11,13.33-2.12,1.6-3.11,3.27-2.27,5.61.52,1.45,1.48,2.48,3.04,2.62,2.6.23,3.87-1.48,4.79-3.76,3.26,2.67,6.38,5.27,9.57,7.79.97.77,1.27,1.27.52,2.5-1.41,2.31-1.65,4.82-.02,7.22.82,1.2.58,1.63-.9,1.99-4.19,1.02-4.86,1.95-4.45,6.01.18,1.73-.79,1.99-2,1.94-1.51-.07-3.02-.29-4.5-.56-2.18-.4-4.33-.28-6.48.19-2.66.59-4.83,1.63-4.7,4.97-1.65-.64-2.81-1.54-3.49-2.98-2.72-5.68-6.7-10.08-12.15-13.41-5.64-3.45-10.86-7.56-15.92-11.86-3.69-3.14-5.92-6.92-6.23-11.67-.53-8.14-4.47-14.28-10.6-19.3-3.91-3.2-7.25-6.93-9.9-11.25-1.8-2.93-4.33-5.1-7.5-6.27-12.42-4.58-24.87-9.12-37.85-11.92-2.12-.46-4.31-.63-6.47-.81-4.09-.35-7.72-1.82-11.19-3.71.39,1.3.8,2.59,1.22,3.89,4.93,2.04,10.29,2.44,15.53,3.49,13,2.59,25.41,7.33,37.88,11.76,2.47.88,4.38,2.64,5.82,4.81,3.54,5.32,7.76,9.99,12.68,14.09,4.16,3.47,6.68,7.93,7.25,13.39.31,2.92,1.16,5.71,2.04,9.07-8.15-3.7-16.64-3.39-24.85-4.71-6.49-1.04-10.91-4.91-14.16-10.36-4.19-7.03-9.11-13.46-15.24-18.96-4.49-4.03-9.32-7.42-15.15-9.21-.63-.19-1.27-.38-1.91-.51-.35-.07-.73-.01-1.54-.01,3.08,1.34,5.85,2.3,8.39,3.7,9.1,5,15.77,12.55,21.55,20.99.91,1.33,1.78,2.68,2.56,4.09,4.4,7.93,11.3,11.58,20.18,12.13,5,.31,10,.79,14.85,2.19,3.4.98,6.3,2.4,8.74,5.28,4.17,4.94,9.68,8.47,15.05,11.99,7.04,4.62,13.31,9.84,17.3,17.49.76,1.46,2.72,2.16,3.73,3.66.85,1.26.97,1.91-.84,2.17-2.73.39-5.46.51-8.21.49-7.56-.08-15.14-.86-22.68.36-1.15.19-1.7-.34-2.29-1.19-4.81-6.88-11.15-12.35-17.04-18.21-4.6-4.58-10.36-6.89-16.95-6.75-5.57.12-10.51-1.42-14.31-5.65-3.5-3.9-7.59-6.8-12.02-9.14,1.19,1.88,2.39,3.75,3.63,5.59,1.68,1.24,3.25,2.6,4.71,4.15,5.15,5.47,11.18,8.07,18.66,7.97,5.53-.07,10.32,2.15,14.26,6.07,4.5,4.47,8.99,8.95,13.44,13.47,1.6,1.63,2.83,3.54,3.87,5.58,2.67,5.23,6.38,9.61,11.09,13.11,2.73,2.02,4.84,4.54,6.3,7.56,1.86,3.84,4.72,6.54,8.58,8.3,3.84,1.75,7.22,4.12,9.75,7.59,1.02,1.39.93,2.14-.93,2.33-2.62.28-5.25.57-7.87.86,1.36.8,2.74,1.57,4.12,2.34,3.3-.4,6.59-.79,9.63-2.82,2.45-1.64,5.89-1.05,8.91-1.17,2.36-.09,4.74.07,7.07-.49,3.19-.78,3.79-2.22,1.86-4.76-3.2-4.23-7.04-7.66-12.18-9.4-7.77-2.62-15.64-4.6-23.94-3.68-1.6.18-2.46-.33-3.12-1.7-1.69-3.51-4.43-6.1-7.53-8.36-2.47-1.8-4.5-4.01-6.34-6.46-1.4-1.87-1.34-2.55,1.2-2.87,6.54-.83,13.03.02,19.81,0-1.27,3.17.47,4.38,2.9,5.17,11.36,3.72,22.7,5.11,34.07.01,2.46-1.1,5.09-1.63,7.72-.49,6.45,2.79,12.96,2.09,19.48.35,2.29-.61,4.55-1.32,6.84-1.89,5.03-1.24,9.93-1,14.66,1.34,4.56,2.26,9.34,2.38,14.12.96,5.03-1.49,9.9-1.18,15.09-.44,9.8,1.4,19.75,2.66,29.55-.44,2.72-.86,5.41-.55,8.13.08,6.54,1.5,12.98.68,19.33-1.06,1.43-.39,3.61-.6,3.46-2.69-.15-1.95-2.25-2.03-3.74-2.46-2.4-.69-4.84-1.24-7.23-2.25,12.07-.41,23.98-2.77,36.86-1.83-5.59,4.28-10.78,7.79-16.84,9.74-3.33,1.07-6.74,1.9-10.13,2.74-5.65,1.39-10.62,4.02-14.68,8.18-1.11,1.14-2.15,1.3-3.51.98-4.63-1.09-8.8.03-12.65,2.69-4.28,2.96-8.5,6-13.18,8.35-1.16.58-2.19,1.5-3.17,2.39-3.4,3.06-2.91,5.58,1.5,6.9,7.13,2.13,14.53,2.52,21.91,2.89,30.08,1.5,60.18,2.26,90.29,2.84.34,0,.67.09,1.88.26-28.19,14.06-57.02,24.43-86.97,29.02,45.97-5.51,88.08-23.53,122.85-50.57-8.76,6.12-17.91,11.68-27.25,16.94ZM348.14,464.85c1.12.12,1.71.73,1.59,1.69-.11.95.02,2.27-1.3,2.47-1.12.17-1.71-.64-1.68-1.76.04-1.06.23-2.07,1.39-2.4ZM203.48,304.81c-6.28-5.8-11.83-12.26-17.18-18.9-2.02-2.51-4.05-5.01-6.07-7.51-4.43-5.47-9.28-10.47-16.11-13.95,6.55-3.55,12.49-7.37,18.82-10.54,12.36-6.18,25.05-11.64,37.64-17.31,8.73-3.93,17.07-8.58,25.02-13.93,1.8-1.21,3.62-2.39,5.99-3.96-1.14,4.16-2.7,7.33-5.1,10.08-9.8,11.24-20.24,21.76-32.72,30.1-3.51,2.34-7.11,4.64-9.41,7.91,15.02-9.86,29.15-21.22,41.07-35.13,2.54-2.96,4.9-5.98,6.27-9.71,2.24-6.09,8.63-9.46,15.02-7.97,4.67,1.09,8.83,3.33,12.84,5.88,7.26,4.62,14.27,9.67,22.22,13.11,2.5,1.08.74,1.86-.18,2.64-7.78,6.58-16.43,11.87-25.54,16.32-14.44,7.06-27.18,16.44-38.74,27.49-9.6,9.18-20.3,17.04-30.33,25.7-1.5,1.29-2.32.77-3.51-.33ZM246.39,341.54c-6.32-10.37-15.69-17.55-25.64-24.11-4.03-2.66-7.93-5.51-11.92-8.22-1.32-.89-1.68-1.56-.19-2.68,14.15-10.67,27.45-22.35,40.63-34.18,6.52-5.85,13.78-10.74,21.6-14.59,13.74-6.77,26.56-14.87,38.26-24.78,4.69-3.97,9.73-7.5,14.94-11.49-.32,2.34-1.42,3.97-2.2,5.69-6.35,14.04-16.39,24.41-30.04,31.74-13.9,7.47-27.71,15.18-40.68,24.24-4.49,3.13-8.56,6.77-11.31,11,1.48-1.31,3.36-2.91,5.17-4.58,7.15-6.61,15.36-11.62,23.86-16.28,9.86-5.41,19.43-11.35,29.2-16.94,11.91-6.81,19.98-17.32,25.2-29.86,2.21-5.31,5.55-9.05,10.57-11.63,11.9-6.12,23.14-13.29,33.74-21.45.35-.27.76-.46,1.14-.69-7.08,9.61-12.25,20.08-16.25,31.19-2.53,7.03-7.74,12.03-13.1,16.86-3.61,3.26-6.56,6.83-6.5,12.13.85-.52.84-1.38.99-2.14.6-2.89,2.08-5.26,4.18-7.27,1.71-1.64,3.38-3.32,5.16-4.88,5.24-4.61,8.94-10.22,11.23-16.8,2.25-6.45,5.42-12.46,8.66-18.47,6.78-12.59,17.17-20.41,30.77-24.23,4.92-1.38,9.86-2.7,14.82-3.88,14.31-3.4,27.25-9.64,38.99-18.43.74-.55,1.52-1.04,2.61-1.24-1.4,1.52-2.89,2.98-4.19,4.59-4.77,5.91-8.9,12.23-12.31,19.03-4.62,9.22-9.1,18.52-15.08,26.99-2.64,3.73-5.5,7.29-9.2,9.99-9.8,7.14-17.31,16.28-24.02,26.26-12.92,19.23-13.57,19.61-34.91,29.02-12.63,5.57-25.26,11.14-37.83,16.86-6.6,3-12.47,7.17-17.58,12.33-8.28,8.36-17.16,16.04-26.64,22.99-7.11,5.21-12.76,11.81-18.62,18.24-1.53,1.68-2.24,1.74-3.5-.33ZM232.72,482.96c-1.28-.07-2.07-.97-1.93-2.25.12-1.07.84-2.04,2.02-1.89,1.13.15,1.59,1.17,1.57,2.53-.06.84-.55,1.67-1.66,1.61ZM244.11,556.16c.41.44,1.27.86.76,1.59-.24.35-.99.42-1.52.49-4.79.59-9.66.03-14.41,1.11-.89.2-1.44-.28-1.89-.94-3.03-4.45-7.34-7.28-12.03-9.66-1.23-.63-2.5-1.32-3.63-3.4,12.47.09,23.93,1.3,32.72,10.81ZM350.88,406.88c-4.81,20.24-6.83,40.83-7.88,61.56-.36,7.08-.82,14.16-1.26,21.24-.04.66-.13,1.32-.3,1.95-.23.82-.55,1.82-1.59,1.68-1.04-.14-.64-1.14-.69-1.85-.27-4.42-1.97-5.9-8.14-6.93,1.34-1.79,2.56-3.55,2.99-5.74.95-4.95-1.85-7.71-6.79-6.61-3.33.74-3.45.73-3.08-2.89,2.54-25.02,6.79-49.66,16.6-73.02,2.64-6.3,5.91-12.27,10.36-17.52,2.85-3.37,6.26-6.04,10.19-8.01,1.42-.71,2.88-1.48,5.04-.99-10.27,10.49-12.33,24.04-15.44,37.15ZM296.99,457.63c-.57,11.05-1.14,22.1-1.75,33.77-2.57-2.51-5.22-3.63-8.21-4.38-2.5-.63-3.02-3.14-2.89-5.58.35-6.34.82-12.67,1.02-19.01.71-21.97,1.13-43.94-2.46-65.75-1.2-7.26-3.38-14.16-7.43-20.39-1.13-1.75-2.37-3.42-4.76-5.25,5.44.08,10.29-1.07,14.82.15,3.02.82,5.29,3.8,7.52,6.25,6.03,6.64,8.48,14.88,10.24,23.37,3.26,15.73,4.13,31.71,4.58,47.72.04,1.51.13,3.03.23,4.54.02.23.27.44.75,1.19.19-1.45.4-2.4.41-3.35.25-18.9-.99-37.66-5.85-56.02-2.42-9.15-6.84-17-14.76-22.56-.31-.21-.74-.24-1.12-.36.18-.25.37-.49.55-.74,3.65.25,7.38.1,10.91.87,3.95.86,6.64,3.91,8.77,7.23,3.6,5.64,4.94,12.04,5.78,18.55.58,4.55.91,9.13,1.62,13.68.66-7.12.19-14.17-1.44-21.16-1.68-7.2-4.59-13.62-11.89-18.14,7.35-.51,13.8-.5,20.77-.21-1.68,2.02-3.64,3.3-4.01,5.91,3.56-6.81,9.65-6.44,16.69-6.03-11.7,4.76-15.15,13.87-15.87,25.23,1.18-2.15,1.19-4.05,1.55-5.85,2.01-10.04,7.68-16.94,17.77-19.19,6.42-1.43,13.1-1.74,19.89-2.14-1.17.86-2.34,1.71-3.5,2.58-6.94,5.24-11.39,12.34-14.84,20.13-7.19,16.2-11.41,33.25-14.23,50.69-1.5,9.26-2.59,18.56-3.17,27.93-.2,3.27-.44,3.34-3.35,2.25-5.01-1.87-7.7-.88-10.33,3.81-1.74,3.1-2.3,6.59-3.2,9.97-.38,1.4-.65,2.52-2.7,2.4-2.94-.17-4.42,2.11-5.58,4.7-1.46-1.42-1.78-2.74-1.53-4.62,1.41-10.67,1.73-21.41.98-32.17ZM265.96,367.27c-3.07-2.09-10.87-11.36-12.8-15.45,2.68.25,5.2.33,7.66.74,15.31,2.56,30.74,2.46,46.16,1.81,13.73-.58,27.45-.42,41.16.11,12.54.49,24.97-.24,37.33-2.28,1.02-.17,2.07-.24,3.1-.33.46-.04.93,0,1.49,0-.28,1.21-1.33,1.38-2.07,1.81-6.17,3.54-12.04,7.51-17.43,12.16-.63.55-1.21,1.2-2.2,1.1-7.9-.83-15.64.64-23.45,1.4-11.88,1.15-23.83.5-35.75.77-13.35.31-26.65-1.65-40-.9-1.16.07-2.21-.25-3.2-.93ZM265.23,480.7c.73-6.6,1.34-13.01,2.17-19.4,1.67-12.78,2.13-25.66,3.25-38.49.59-6.79,1.25-13.58,1.78-20.37.79-10.08,1.94-20.2-2.6-29.88,4.38,4.56,7.29,9.89,8.9,15.9,3.75,14.01,4.54,28.38,4.84,42.79.34,16.1.04,32.2-.99,48.28-.05.82.16,1.72-.54,2.41-10.01-4.59-11.29-4.69-16.81-1.23ZM385.31,524.28c-4.88,1.32-9.78,2.66-14.73,1.72-5.31-1.01-10.43-1.59-15.61.54-1.53.63-3.34.82-5.01.77-7.64-.25-15.32.1-22.87-1.83-4.1-1.05-8.28-.39-12.34.78-4.44,1.28-8.82,1.23-13.01-.84-5.66-2.8-11.44-2.95-17.4-1.22-2.91.85-5.81,1.71-8.75,2.41-4.97,1.19-9.88,1.36-14.76-.71-3.3-1.4-6.72-1.1-9.92.43-10.3,4.92-20.63,3.49-30.98.28-.87-.27-2.2-.51-2.17-1.52.03-1.31,1.51-1.18,2.45-1.37,2.31-.47,4.7-.64,6.77-1.94,1.84-1.16,2.42-2.57.99-4.47-1.14-1.51-2.49-2.95-.93-5.03,1.5-2.01,3.52-2.37,5.8-2.11,2.34.26,4.63,1.02,7.03.81,3.36-.29,4.27-1.19,4.48-4.57.21-3.32,1.81-4.58,5.05-3.78,1.06.26,2.09.71,2.81-.37.69-1.04-.4-1.7-.85-2.46-.33-.56-.87-1.01-1.23-1.55-1.12-1.68-2.28-3.45-.92-5.47,1.38-2.04,3.49-2.44,5.8-2.01,2.64.49,4.23,2.33,5.65,4.41,2.65,3.87,3.96,4.57,6.12,3.35,2.12-1.2,2.27-2.63.5-6.76-1.33-3.12-2.12-6.39.38-9.06,2.62-2.79,6-1.56,9.05-.49,2.54.89,4.59,2.62,6.39,4.61,1.69,1.86,3.59,3.16,6.11,3.86,4.11,1.14,5.41,4.98,7.1,8.34.29.58.4,1.26.64,1.88.29.75.76,1.35,1.66,1.29,1.01-.07,1.05-.89,1.22-1.64.43-1.93.02-3.99.93-5.85.8-1.65,1.57-3.14,3.8-1.71,1.59,1.02,2.21-.1,2.59-1.42.95-3.27,1.86-6.55,2.81-9.82.42-1.46.93-2.88,1.82-4.14,1.93-2.74,3.72-3.22,6.45-1.36,1.81,1.23,3.42,1.26,5.27.25,1.32-.73,2.68-1.44,4.12-1.88,2.71-.83,4.25.62,3.77,3.41-.3,1.73-1.31,3.12-2.29,4.52-1.14,1.62-2.55,3.07-3.29,4.94-.27.67-.81,1.44-.13,2.11.73.72,1.47.02,2.03-.35,1.56-1.02,3.24-1.85,5.06-1.39,1.65.42,4.02.83,2.26,3.63-.32.51-.16,1.79.36,1.64,2.25-.67,2.02,1.24,2.65,2.26,1.09,1.75,2.52,1.43,3.91.54,1.93-1.23,3.87-2.38,6.17-2.77,2.93-.5,4.54.78,4.66,3.75.07,1.73-.41,3.37-.77,5.03-.43,1.99-.18,3.27,2.41,2.38,1.8-.61,3.72-.76,5.62-.47,3.26.51,4.68,2.57,4.08,5.81-.84,4.55-.19,5.38,4.39,5.64,1.13.06,2.27.14,3.4.2,1.85.11,3.18.53,2.49,2.92-.62,2.15,1.1,2.85,2.61,3.37,2.74.94,5.54,1.68,8.31,2.51ZM369.61,559.78c-7.29-.05-14.56-.44-21.77-1.65-1.02-.17-2.06-.36-3.03-.71-1.63-.57-1.86-1.55-.44-2.63,6.95-5.34,13.24-7.49,21.71-.48,1.36,1.13,2.51,2.51,3.75,3.78-2.51-5.36-6.26-7.63-14.98-9.53,2.97-3.56,4.83-4.06,8.68-2.21,6,2.89,10.09,7.69,13.6,13.42-2.7.61-5.11.02-7.52,0ZM379.7,560.23c-1.31.01-1.73-.97-2.29-1.82-1.87-2.84-3.64-5.76-6.14-8.13-2.92-2.78-6.26-4.85-10.51-6.02,3.74-3.13,10.04-3.72,13.76-.91,4.97,3.75,9.91,7.6,14.06,12.31,1.18,1.34,2.16,2.82,2.5,4.55-3.88,0-7.63-.02-11.39.01Z"/>
        <path d="M179.89,528.8c-2.93-1.06-5.73-2.47-8.38-4.15-2.98-1.89-5.3-4.3-6.3-7.75-.95-3.27-3.23-5.19-6.16-6.63-2.87-1.41-5.87-2.23-8.92-2.81.36.42.71.85,1.07,1.27,2.92.7,5.76,1.64,8.5,3.06,2.21,1.14,3.75,2.91,4.48,5.27,1.44,4.69,4.74,7.63,8.94,9.75,1.86.94,3.7,1.94,5.65,2.64,6.34,2.28,10.27,6.87,12.7,12.95.85,2.13,1.74,4.24,2.73,6.3.58.42,1.15.84,1.73,1.26-1.45-3.07-2.73-6.23-4.08-9.35-2.41-5.54-6.12-9.69-11.96-11.8Z"/>
        <path d="M362.13,320.09c9.29-9.51,20.31-16.3,32.92-20.53,4.12-1.38,8.2-2.91,12.22-4.56,10.43-4.29,20.02-9.84,27.5-18.55,4.46-5.19,6.94-11.45,9.77-17.53,4.38-9.4,9.43-12.11,19.73-10.71,7.3.99,14.56,2.42,22.01,1.42,5.38-.72,10.57-2.3,13.38-4.79-11.04,5.02-21.94,4.62-33.03,2.7-13.33-2.31-18.9.52-23.95,13.13-5.68,14.18-15.67,23.77-29.08,30.39-8.26,4.08-17.04,6.74-25.57,10.11-15.28,6.03-26.28,17.39-37.18,28.92.42.41.83.82,1.25,1.23,3.33-3.76,6.52-7.65,10.03-11.24Z"/>
        <path d="M374.75,273.45c7.91-.39,14.2-4.19,19.09-10.38,2.83-3.59,5.05-7.57,7-11.66,3.86-8.08,10.01-13.06,18.75-15.04,6.09-1.38,11.97-3.54,17.86-5.58,2.3-.79,4.55-1.72,6.15-3.64-2.42,1.45-4.97,2.43-7.6,3.22-6.61,1.99-13.2,4.01-19.83,5.93-6.42,1.86-11.22,5.75-14.55,11.47-2,3.43-3.79,6.99-5.79,10.41-4.95,8.47-12.12,13.82-22.08,14.41-6.19.36-11,2.91-15.21,7.2-5.7,5.79-12.34,10.25-19.71,13.69-6.43,3-12.73,6.28-18.71,10.11-4.11,2.63-8.11,5.44-10.94,9.58,9.37-8.98,21.06-14.16,32.38-19.94,6.28-3.21,12.17-6.97,16.99-12.17,4.4-4.75,9.65-7.29,16.22-7.61Z"/>
        <path d="M390.61,374c13.37-5.44,24.34-14.15,33.61-25.04,5.02-5.9,11.04-10.29,18.03-13.49,4.56-2.09,9.2-4.04,13.55-6.51,15.91-9.05,28.31-22.06,39.55-36.21,4.95-6.23,10.43-11.72,17.07-16.08,2.77-1.82,5.53-3.65,8.3-5.47,11.14-7.3,20.21-16.46,26.1-28.59,2.9-5.98,6.73-11.4,10.92-16.56.13-.16.28-.32.42-.48-.13-.23-.26-.47-.39-.7-5.36,5.83-9.35,12.22-12.82,18.93-4.39,8.49-10.49,15.47-17.9,21.41-3.78,3.03-7.8,5.68-11.86,8.29-6.8,4.36-13.38,9.03-18.24,15.62-6.9,9.34-15.06,17.5-23.44,25.46-7.84,7.45-16.61,13.45-26.64,17.55-9.7,3.97-18.08,9.61-24.97,17.71-8.38,9.85-18.45,17.87-30.59,22.54-12.98,5-23.25,13.69-33.49,22.57,3.23-.91,5.62-3.16,7.93-5.35,7.27-6.87,15.66-11.85,24.87-15.6Z"/>
        <path d="M357.81,394.94c-.06.02-.12.04-.19.06,0,0,.01.01.02.02.01.02.03.03.03.03.05-.04.09-.08.14-.12Z"/>
        <path d="M403.54,418.44c4.72-.81,9.09-2.66,13.07-5.29,15.62-10.31,29.77-22.1,39.58-38.44,4.43-7.37,10.37-13.48,17.42-18.48,4.71-3.34,9.33-6.8,14-10.21,5.76-4.2,11.9-7.75,18.49-10.46,9.36-3.86,18.56-8.07,27.56-12.71,6.63-3.42,13.29-6.8,18.8-11.97-6.22,4.01-12.55,7.75-19.15,11.08-8.54,4.3-17.1,8.53-26.02,11.96-11.83,4.55-21.55,12.47-31.76,19.65-8.02,5.64-15.05,12.21-20.1,20.57-9.44,15.65-22.92,27.04-37.77,37.1-4.77,3.23-9.91,5.53-15.58,6.54-6.91,1.23-13.14,4.04-19.01,7.84-10.61,6.87-20.07,15.17-29.59,23.42-2.11,1.83-3.77,4.05-4.63,6.82,1.62-2,2.99-4.2,4.95-5.9,8.81-7.61,17.7-15.13,27.26-21.81,6.83-4.78,14.19-8.27,22.48-9.7Z"/>
        <path d="M358.54,472.63c-.16.9.3,1.49,1.2,1.56,1.13.09,1.78-.62,1.92-1.65.12-.85.03-1.74-1.09-1.92-1.31.07-1.84.91-2.03,2.01Z"/>
        <path d="M589.83,349.78c-.22.25-.47.42-.59.66-5.67,11.48-14.93,19-26.28,24.48-9.51,4.59-17.59,11.04-23.72,19.82-4.9,7.02-11.62,11.85-19.49,15.12-3.49,1.45-6.94,3.07-10.54,4.19-11.89,3.67-19.66,10.98-21.65,23.66-.04.28-.19.54-.24.82-1.33,6.41-4.94,11.34-9.89,15.48-5.01,4.19-9.94,8.48-14.8,12.85-5.55,4.98-11.56,9.14-18.63,11.7-3.57,1.29-6.8,3.3-10.03,5.28-9.18,5.64-17.3,12.88-26.87,17.91,5.36-1.65,9.83-4.8,14.31-7.94,7.44-5.22,14.64-10.85,23.16-14.25,7.07-2.82,13.2-6.94,18.78-12.02,2.94-2.68,5.76-5.55,8.97-7.86,9.47-6.82,16.03-15.43,17.86-27.2.04-.28.19-.53.28-.8,1.92-6.11,5.72-10.63,11.55-13.31,3.43-1.58,6.92-3.08,10.48-4.34,12.17-4.29,22.58-10.81,30.04-21.75,3.81-5.59,9.23-9.75,15.12-13.14,4.02-2.31,8.07-4.57,12.16-6.75,8.85-4.7,15.29-11.65,19.63-20.61.14-.29.41-.59.55-.93,0-.25,0-.5,0-.75-.04-.1-.1-.19-.17-.3Z"/>
        <path d="M383.51,475.99c-.01,1.58.81,2.78,2.56,2.75,2.09-.05,3.36-1.29,3.5-3.34.13-1.82-1.07-2.69-2.73-2.95-2.14.26-3.32,1.47-3.33,3.55Z"/>
        <path d="M457.51,441.06c-6.89,6.81-15.01,11.9-23.27,16.88,8.92-3.97,17.08-9.06,23.27-16.88Z"/>
        <path d="M378.37,508.53c-.38.66.27,1.71,1,1.68,1.51-.06,1.37-1.42,1.47-2.45.25-.87.14-1.72-.81-1.75-1.64-.04-1.16,1.65-1.66,2.52Z"/>
        <path d="M368.87,495.68c-.92-.03-1.16.86-1.26,1.59-.1.7.19,1.34,1.02,1.4.94.07,1.28-.6,1.49-1.4-.08-.79-.39-1.56-1.25-1.59Z"/>
        <path d="M104.57,279.05c.7,1.03,1.53.99,2.23,1.03,12.95.75,23.89,6.55,34.56,13.3,8.56,5.42,14.23,12.51,16.78,22.55,3.14,12.41,10.7,18.53,23.47,19.45,8.87.64,16.25,3.79,22.52,10,5.88,5.83,12.85,10.27,19.67,14.89,5.42,3.67,10.6,7.64,15.06,12.48,4.02,4.36,6.67,9.35,7.54,15.28.44,2.99.86,6.12,2.71,8.6,5.52,7.41,10.98,14.9,17.55,21.4-4.88-5.75-8.86-12.13-13.74-17.79-3.09-3.58-4.89-7.58-5.47-12.22-.82-6.55-3.88-11.99-8.39-16.7-3.03-3.16-6.35-5.97-9.9-8.5-9.79-6.97-19.85-13.56-28.67-21.83-3.43-3.22-7.78-5.02-12.48-5.72-2.71-.4-5.44-.69-8.17-1.05-9.83-1.3-16.53-6.55-19.95-15.88-.91-2.48-1.63-5.04-2.38-7.58-1.45-4.96-4.08-9.21-8.04-12.47-8.91-7.33-18.6-13.36-29.7-16.83-4.86-1.52-9.88-2.18-15.2-2.41Z"/>
        <path d="M146.73,278.47c12.69,4.82,22.25,13.31,28.26,25.38,4.15,8.33,10.41,13.93,18.63,17.87,19.55,9.39,36.27,22.5,50.46,38.88,4.29,4.96,7.45,10.42,9.11,16.8,1.56,5.99,4,11.62,7.41,16.8,1.52,2.31,3.1,4.59,5.36,6.29-2.72-4.06-5.58-8.02-7.72-12.42-2.16-4.45-3.48-9.19-4.93-13.88-1.6-5.16-4.37-9.61-7.87-13.67-14.39-16.71-31.29-30.22-51.24-39.72-8.28-3.94-14.44-9.6-18.52-17.94-4.97-10.14-12.85-17.69-22.94-22.85-8.75-4.47-18.47-6.51-27.25-10.95,1.3,1.74,3.24,2.45,5.1,3.19,5.36,2.13,10.75,4.17,16.14,6.22Z"/>
        <path d="M281.34,552.67c-.99,1-2.07,2.14-1.54,3.72.54,1.63,2.12,1.66,3.52,1.85,5.36.74,10.75.33,17.41.64,2.21,0,5.7.02,9.2,0,1.41-.01,2.84-.07,4.24-.22,1.04-.11,2.14-.42,2.56-1.5.45-1.18-.07-2.27-.96-3.06-1.05-.93-2.14-1.9-3.37-2.54-3.68-1.93-7.53-3.57-11.59-4.47-7.44-1.65-14.04.11-19.47,5.6ZM284.16,555.74c-.45-.02-.88-.24-1.57-.44,3.75-4.34,4.92-4.56,9.35-2.17,1.97,1.06,4,2.01,6.51,3.27-5.12-.23-9.71-.43-14.3-.66ZM313.17,555.64c-6.43,2.17-16.28.1-23.66-5.11,6.52-2.63,18.61.05,23.66,5.11Z"/>
        <path d="M386.74,580.12c-36.97,3.17-74.02-.39-110.99,1.45,1.02.8,2.14.52,3.2.53,13.24.03,26.49.07,39.73.33,20.43.39,40.87.78,61.27-.92,2.3-.19,4.64-.27,6.79-1.38Z"/>
        <path d="M434.21,570.02c.04-.21.07-.43.11-.64-.7-.12-1.41-.32-2.12-.36-23.52-1.34-47.03-2.68-70.55-3.99-8.7-.48-17.37-1.1-25.83-3.4-3.35-.91-6.45-2.18-6.92-6.35-.3,3.62.77,5.39,4.25,6.77,4.52,1.8,9.3,2.56,14.11,2.9,16.13,1.17,32.26,2.34,48.41,3.29,12.83.76,25.69,1.2,38.53,1.78Z"/>
        <path d="M300.14,575.03c14.47.54,28.95,1.45,43.43.22,2.87-.25,5.8-.3,8.51-1.67-4.76.31-9.51.78-14.27.91-17.43.48-34.83-.73-52.24-1.26-5.26-.16-10.5-.06-16.03.48.98.71,1.77.5,2.5.49,9.38-.09,18.74.49,28.1.84Z"/>
        <path d="M263.72,562.08c-2.74,1.76-5.78,2.79-8.93,3.52-8.48,1.96-17.07,3.23-25.68,4.44.35.18.71.35,1.07.53,6.34-.54,12.63-1.53,18.92-2.55,5.34-.87,10.65-1.88,15.31-4.85,5.11-3.27,5.12-7.87-.12-10.87-6.38-3.66-13.64-3.79-20.68-4.77,3.48,1.56,7.26,1.82,10.91,2.63,3.15.7,6.31,1.36,9.09,3.06,4.54,2.78,4.57,6,.12,8.86Z"/>
        <path d="M229.79,536.07c20,.62,40,1.24,60,1.85,0-.27.02-.54.03-.81-19.97-1.49-39.99-1.49-60-1.95,0,.3-.02.6-.03.9Z"/>
        <path d="M303.5,536.93c0,.23,0,.46,0,.69,14.22.81,28.42.55,42.61-.69h-42.61Z"/>
        <path d="M218.98,422.87c-5.18-3.6-10.92-6.06-16.93-7.8-8.41-2.44-15.91-6.46-22.52-12.16-4.99-4.31-10.65-7.49-16.71-10.02-4.16-1.73-8.41-3.26-12.4-5.49,1.72,2.15,4.2,3.14,6.62,4.1,9.2,3.65,17.79,8.27,25.27,14.88,3.62,3.2,7.86,5.62,12.44,7.26,9.98,3.58,20.34,6.32,28.67,13.5-1.14-1.85-2.75-3.09-4.44-4.27Z"/>
        <path d="M244.86,440.84c-2.1-.04-3.58,1.55-3.6,3.88-.02,2.22,1.54,3.88,3.63,3.87,1.96,0,3.64-1.8,3.69-3.91.05-2.06-1.64-3.79-3.73-3.83ZM244.8,446.75c-1.26-.03-1.85-.95-1.77-2.12.09-1.13.68-1.99,2-1.91,1.19.07,1.48.98,1.72,1.83-.29,1.17-.65,2.23-1.95,2.2Z"/>
        <path d="M244.81,466.96c.3,2.08,1.21,3.76,3.44,3.82,2.07.06,2.88-1.57,3.03-3.38.17-1.97-1.52-3.75-3.38-3.72-2.15.04-2.82,1.5-3.09,3.28ZM248.23,465.56c.96.15,1.45.8,1.46,1.79-.14.79-.47,1.61-1.34,1.54-1.1-.08-1.51-1.03-1.55-2.04-.03-.92.51-1.44,1.42-1.3Z"/>
        <path d="M217.34,455.29c.09,1.08.83,1.67,1.81,1.89.71.16,1.06-.34.95-1-.16-.98-.68-1.74-1.7-1.95-.73.03-1.12.39-1.06,1.06Z"/>
        <path d="M316.87,453.99c1.86-12.15,3.26-24.38,6.7-36.24,4.78-16.5,11.56-31.84,24.87-43.45.03-.03-.11-.26-.21-.51-5.54,4.03-9.84,9.12-13.41,14.88-8.29,13.4-12.83,28.16-15.77,43.49-1.47,7.7-2.79,15.42-3.03,23.72.95-.73.77-1.36.85-1.88Z"/>
        <path d="M296.15,444.28c-2.37-.39-1.98-1.79-1.98-3.25.03-10.42-.3-20.83-1.86-31.16-.91-6.07-1.98-12.11-4.75-17.78-.13.21-.24.31-.22.37,4.51,14.23,5.42,28.95,5.81,43.73.08,3.19.41,6.41-.71,9.56-.59,1.65.11,3.37.49,5.03.16.72.68,1.1,1.47,1.05,2.22-.13,2.7-1.88,3.1-3.52.38-1.56.72-3.68-1.35-4.02ZM295.19,449.64c-.9.1-.83-.89-.91-1.47-.12-.91.06-1.79.62-2.5,1.01.28,1.71.77,1.68,1.56-.03.97-.01,2.27-1.39,2.41Z"/>
        <path d="M297.44,407.07c1.21,7.55,1.95,15.16,2.62,22.78.21-.74.28-1.48.27-2.22-.03-9.03-1.11-17.96-2.89-26.79-1.24-6.14-3.04-12.13-6.25-17.58-2.09-3.56-4.54-6.83-8.27-8.94,5.21,4.67,8.4,10.58,10.72,17.04,1.83,5.1,2.94,10.37,3.8,15.7Z"/>
        <path d="M290.72,475.89c-1,.12-1.37.86-1.32,1.8.05.86.46,1.47,1.4,1.28.92-.18,1.37-.87,1.47-1.81-.23-.78-.68-1.38-1.56-1.28Z"/>
        <path d="M232.89,492.98c-.04-1.04-.85-1.33-1.67-1.57-.72-.2-1.43-.05-1.38.83.05.9.72,1.51,1.59,1.73.75.19,1.23-.25,1.46-.99Z"/>
        <path d="M335.41,510.87c-2.68.04-4.62,1.89-4.55,4.35.07,2.37,1.82,3.98,4.26,3.92,2.73-.06,4.79-2.05,4.73-4.59-.05-2.28-1.79-3.72-4.45-3.69ZM335.08,517.09c-1.29.09-2.26-.61-2.25-1.96.01-1.46,1.07-2.18,2.42-2.26,1.37-.09,2.33.57,2.63,2.06-.2,1.63-1.45,2.07-2.8,2.17Z"/>
        <path d="M315.11,504.13c-2.14.28-3,1.91-3.59,3.75,1.8-1.59,3.63-3.13,6.1-1.92,2.59,1.28.96,3.81,1.24,6.15,1.78-2.15,1.98-4.2.96-6.27-.96-1.94-2.91-1.95-4.72-1.72Z"/>
        <path d="M286.83,497.97c-1.33-1.39-1.85-3.52-3.94-2.38-2.02,1.1-1.17,2.91-.53,4.47.72,1.75,1.55,3.45,2.58,5.73.63-2.62-.43-4.22-.97-5.94-.26-.85-1.18-1.82-.42-2.61,1-1.05,1.76.47,3.28.72Z"/>
        <path d="M273.78,510.77c-.76-.37-1.54-.59-2.01.15-.54.84.18,1.48.88,1.72,1.93.68,3,2.14,3.89,4.52.93-3.12-.13-5.11-2.76-6.39Z"/>
        <path d="M252.51,511.06c-.82-.02-1.86-.04-1.65.74.36,1.32,1.53,2.02,2.96,2.07.93.03,1.95-.26,1.75-1.29-.33-1.75-2.04-1.23-3.06-1.51Z"/>
        <path d="M271.24,516.9c-.47-.36-1.08-.43-1.52.09-.35.42-.16.89.12,1.29,1.03,1.52,3.99,1.78,5.59.46-.6-.62-1.41-.26-2.09-.46-.86-.25-1.43-.87-2.1-1.38Z"/>
        <path d="M317.38,493.77c.24-.43.33-.94-.2-1.19-.5-.24-.93.07-1.1.54-.45,1.28-1.28,2.49-.8,4.21,1.4-1.06,1.48-2.46,2.09-3.57Z"/>
        <path d="M516.59,504.14c-13.15,4.81-24.71,11.87-34.74,21.88-10.73,10.71-22.45,20.36-37.16,25.47-1.31.46-2.54,1.28-3.67,2.12-1.53,1.13-3.01,2.38-3.54,4.37,2.91-3.48,6.8-5.4,10.85-7.1,2.44-1.03,4.91-2.03,7.24-3.27,11.25-5.97,20.53-14.52,29.55-23.29,6.97-6.77,14.72-12.13,23.67-15.82,9.17-3.78,18.26-7.78,27.69-10.88-6.96,1.23-13.34,4.12-19.89,6.51Z"/>
        <path d="M354.1,383.45c-12.34,26.46-14.95,54.92-16.94,83.55,3.12-28.32,5.83-56.79,16.94-83.55Z"/>
        <path d="M335.69,358.52c-22.72-.64-45.45.03-68.15-.6,22.71,1.88,45.43,1.56,68.15.6Z"/>
        <path d="M292.33,364.09c12.68.22,25.36,1.2,38-.36-12.67.35-25.36-.81-38,.36Z"/>
        <path d="M376.44,357.94h-21.81c.02.25.03.51.05.76,4.9.98,18.25.36,21.77-.76Z"/>
        <path d="M276.13,418.26c.21,19.28-2.46,38.38-3.61,57.61,3-13.68,5.51-53.5,3.61-57.61Z"/>
      </g>
      <path d="M341,598.07c-138.16,0-250.56-112.4-250.56-250.56s112.4-250.56,250.56-250.56,250.56,112.4,250.56,250.56-112.4,250.56-250.56,250.56ZM341,100c-136.48,0-247.52,111.04-247.52,247.52s111.03,247.52,247.52,247.52,247.52-111.04,247.52-247.52-111.04-247.52-247.52-247.52Z"/>
    </g>
  </g>
</svg>